<?xml version="1.0" encoding="UTF-8" standalone="no"?>
<!-- Created with Inkscape (http://www.inkscape.org/) -->

<svg
   width="30mm"
   height="45mm"
   viewBox="0 0 30 45"
   version="1.1"
   id="svg5"
   inkscape:version="1.1.2 (b8e25be833, 2022-02-05)"
   sodipodi:docname="parkrun.svg"
   xmlns:inkscape="http://www.inkscape.org/namespaces/inkscape"
   xmlns:sodipodi="http://sodipodi.sourceforge.net/DTD/sodipodi-0.dtd"
   xmlns="http://www.w3.org/2000/svg"
   xmlns:svg="http://www.w3.org/2000/svg">
  <sodipodi:namedview
     id="namedview7"
     pagecolor="#ffffff"
     bordercolor="#666666"
     borderopacity="1.0"
     inkscape:pageshadow="2"
     inkscape:pageopacity="0.0"
     inkscape:pagecheckerboard="0"
     inkscape:document-units="mm"
     showgrid="false"
     inkscape:zoom="0.77771465"
     inkscape:cx="144.01169"
     inkscape:cy="354.88595"
     inkscape:window-width="1792"
     inkscape:window-height="1541"
     inkscape:window-x="-2158"
     inkscape:window-y="264"
     inkscape:window-maximized="0"
     inkscape:current-layer="layer1" />
  <defs
     id="defs2" />
  <g
     inkscape:label="Layer 1"
     inkscape:groupmode="layer"
     id="layer1">
    <path
       id="path968"
       style="fill:#000000;stroke:#000000;stroke-width:0.264583;stroke-opacity:1"
       d="m 18.134957,42.390368 c 0.154636,-0.28894 0.273892,-2.27797 0.273892,-4.56819 0,-3.44565 0.07391,-4.19423 0.490873,-4.9717 0.690266,-1.28708 2.062097,-2.30373 3.610168,-2.67546 0.727604,-0.17472 1.77646,-0.42517 2.330791,-0.55657 0.933816,-0.22134 1.001864,-0.30103 0.926042,-1.08437 -0.07877,-0.81384 -0.131175,-0.84859 -1.400596,-0.92865 -1.646808,-0.10387 -3.236658,0.33053 -4.770987,1.30357 l -1.186291,0.75232 v -6.34417 c 0,-6.01535 -0.02774,-6.37191 -0.535231,-6.8794 -0.425111,-0.42511 -0.642853,-0.47763 -1.058333,-0.25528 -0.510223,0.27306 -0.523103,0.60115 -0.523103,13.32343 0,7.17391 0.07937,13.12284 0.17639,13.21986 0.365535,0.36553 1.403014,0.15673 1.666385,-0.33539 z m -5.961041,-12.71084 c 0.477684,-0.18162 0.678683,-0.45312 0.678683,-0.91674 0,-0.82575 -0.680487,-1.2057 -2.165419,-1.20906 -1.4675315,-0.003 -3.5631345,-0.98111 -4.8406005,-2.25858 -1.468897,-1.46889 -2.09435,-3.0536 -2.083703,-5.27946 0.02026,-4.23528 2.837183,-7.28854 7.1334785,-7.73196 l 1.411396,-0.14567 -0.161245,-1.54269 c -0.414251,-3.96335 2.257043,-7.11614 6.029345,-7.11614 1.898452,0 3.970909,1.00883 5.004988,2.43634 0.772258,1.06607 1.453478,3.50541 1.178817,4.22116 -0.08422,0.21947 0.06842,0.67263 0.339201,1.00703 0.408054,0.50393 0.585203,0.55829 1.034955,0.31759 0.701497,-0.37543 0.927433,-1.55918 0.613521,-3.21443 -0.498698,-2.62963 -1.981833,-4.69817 -4.282247,-5.9725 -1.266984,-0.70185 -1.644674,-0.77932 -3.788529,-0.77713 -2.061752,0.002 -2.560174,0.0966 -3.714789,0.70392 -2.538804,1.33551 -4.1348,3.67079 -4.5669805,6.68248 -0.182023,1.26844 -0.205655,1.29523 -1.52028,1.72371 -1.855152,0.60464 -3.073478,1.41143 -4.459711,2.95325 -1.659026,1.84524 -2.380832,3.79619 -2.388212,6.45504 -0.0051,1.82975 0.107099,2.35698 0.827567,3.88956 1.437942,3.05879 4.18347,5.22182 7.283308,5.73807 0.7674415,0.12781 1.4768955,0.2463 1.5765615,0.26331 0.09967,0.017 0.486621,-0.0852 0.859895,-0.2271 z" />
  </g>
</svg>
